<svg width="1228" height="274" viewBox="0 0 1228 274" fill="none" xmlns="http://www.w3.org/2000/svg">
<path d="M378.523 209V61.8124H410.484L457.374 155.171L503.633 61.8124H535.593V209H508.679V107.441L467.677 187.973H446.44L405.437 107.441V209H378.523ZM599.475 211.523C590.504 211.523 583.144 210.121 577.397 207.318C571.65 204.374 567.374 200.519 564.571 195.753C561.767 190.987 560.365 185.73 560.365 179.983C560.365 170.311 564.15 162.461 571.72 156.433C579.29 150.405 590.644 147.391 605.783 147.391H632.277V144.868C632.277 137.719 630.245 132.462 626.179 129.098C622.114 125.734 617.068 124.052 611.04 124.052C605.573 124.052 600.807 125.383 596.742 128.047C592.677 130.57 590.153 134.355 589.172 139.401H562.889C563.59 131.832 566.113 125.243 570.458 119.636C574.944 114.029 580.691 109.754 587.7 106.81C594.709 103.726 602.559 102.184 611.25 102.184C626.109 102.184 637.814 105.899 646.365 113.328C654.916 120.758 659.191 131.271 659.191 144.868V209H636.272L633.749 192.179C630.665 197.786 626.32 202.412 620.712 206.056C615.245 209.701 608.166 211.523 599.475 211.523ZM605.573 190.496C613.283 190.496 619.24 187.973 623.446 182.927C627.791 177.88 630.525 171.642 631.646 164.213H608.727C601.578 164.213 596.461 165.545 593.378 168.208C590.294 170.731 588.752 173.885 588.752 177.67C588.752 181.735 590.294 184.889 593.378 187.132C596.461 189.375 600.527 190.496 605.573 190.496ZM684.875 209V104.707H708.636L710.738 122.37C713.962 116.202 718.588 111.295 724.616 107.651C730.784 104.006 738.003 102.184 746.274 102.184C759.17 102.184 769.193 106.249 776.342 114.379C783.491 122.51 787.066 134.425 787.066 150.125V209H760.151V152.648C760.151 143.677 758.329 136.808 754.684 132.042C751.04 127.276 745.362 124.893 737.653 124.893C730.083 124.893 723.845 127.556 718.939 132.883C714.173 138.21 711.79 145.639 711.79 155.171V209H684.875ZM851.912 211.523C838.875 211.523 828.782 207.458 821.633 199.328C814.624 191.197 811.12 179.282 811.12 163.582V104.707H837.824V161.059C837.824 170.03 839.646 176.899 843.291 181.665C846.936 186.431 852.683 188.814 860.533 188.814C867.962 188.814 874.06 186.151 878.826 180.824C883.732 175.497 886.186 168.068 886.186 158.536V104.707H913.1V209H889.34L887.237 191.337C884.013 197.505 879.317 202.412 873.149 206.056C867.121 209.701 860.042 211.523 851.912 211.523ZM984.885 177.88C979.839 177.88 975.143 177.32 970.797 176.198L963.017 183.978C965.4 185.24 968.624 186.291 972.689 187.132C976.755 187.973 983.343 188.814 992.455 189.655C1006.33 190.917 1016.43 194.211 1022.73 199.538C1029.04 204.865 1032.2 212.224 1032.2 221.616C1032.2 227.784 1030.51 233.601 1027.15 239.068C1023.78 244.675 1018.6 249.161 1011.59 252.525C1004.58 256.03 995.609 257.782 984.675 257.782C969.816 257.782 957.83 254.979 948.719 249.371C939.607 243.904 935.051 235.634 935.051 224.56C935.051 215.168 939.607 207.037 948.719 200.169C945.915 198.907 943.462 197.575 941.36 196.174C939.397 194.772 937.645 193.3 936.103 191.758V186.922L954.396 167.577C946.266 160.428 942.201 151.246 942.201 140.032C942.201 133.023 943.883 126.645 947.247 120.898C950.751 115.15 955.658 110.595 961.966 107.23C968.274 103.866 975.914 102.184 984.885 102.184C990.772 102.184 996.239 103.025 1001.29 104.707H1040.82V121.108L1022.94 122.37C1025.75 127.696 1027.15 133.584 1027.15 140.032C1027.15 147.041 1025.47 153.419 1022.1 159.166C1018.74 164.914 1013.83 169.47 1007.38 172.834C1001.08 176.198 993.576 177.88 984.885 177.88ZM984.885 157.274C990.352 157.274 994.838 155.802 998.342 152.858C1001.99 149.915 1003.81 145.709 1003.81 140.242C1003.81 134.775 1001.99 130.57 998.342 127.626C994.838 124.683 990.352 123.211 984.885 123.211C979.138 123.211 974.512 124.683 971.007 127.626C967.503 130.57 965.751 134.775 965.751 140.242C965.751 145.709 967.503 149.915 971.007 152.858C974.512 155.802 979.138 157.274 984.885 157.274ZM959.653 221.826C959.653 227.013 962.036 230.868 966.802 233.391C971.708 236.054 977.666 237.386 984.675 237.386C991.403 237.386 996.87 235.984 1001.08 233.181C1005.28 230.517 1007.38 226.873 1007.38 222.247C1007.38 218.462 1005.98 215.308 1003.18 212.785C1000.51 210.262 995.118 208.72 986.988 208.159C981.24 207.738 975.914 207.108 971.007 206.267C966.942 208.509 963.998 210.963 962.176 213.626C960.494 216.289 959.653 219.023 959.653 221.826ZM1060.44 209V57.6071H1087.36V209H1060.44ZM1127.89 255.259L1152.07 202.061H1145.77L1105.18 104.707H1134.41L1163.64 178.091L1194.13 104.707H1222.72L1156.49 255.259H1127.89Z" fill="#212121"/>
<path fill-rule="evenodd" clip-rule="evenodd" d="M34.2882 44.0456C27.2602 41.3148 19.3924 44.9121 16.7151 52.0805C14.0378 59.2488 17.5647 67.2737 24.5927 70.0045C24.8923 70.1209 25.2185 70.2402 25.5696 70.362C16.2831 79.6338 7.52508 93.7038 4.8901 101.387C1.63003 110.892 -4.57044e-06 121.484 -4.05997e-06 133.162C-3.31208e-06 150.272 3.26006 164.801 9.78019 176.751C16.0287 188.701 24.5863 197.799 35.4532 204.045C46.3201 210.291 58.4095 213.415 71.7215 213.415C93.9986 213.415 111.929 205.403 125.513 189.38L159.743 224.006H169.116C172.648 220.476 175.908 216.674 178.896 212.6C181.613 208.255 184.194 203.094 186.639 197.12C194.517 208.255 202.803 215.859 211.497 219.933C220.462 224.006 228.748 226.043 236.355 226.043C251.025 226.043 263.115 222.105 272.623 214.229C282.403 206.353 289.603 195.354 294.221 181.232C299.111 167.11 301.556 150.951 301.556 132.754C301.556 112.114 298.16 95.276 291.369 82.24C284.577 68.9325 275.883 59.1555 265.288 52.9091C254.693 46.3911 243.554 43.1321 231.872 43.1321C214.757 43.1321 200.902 48.9711 190.306 60.6492C179.711 72.3273 173.463 91.7455 171.561 118.904C170.203 134.112 168.98 145.926 167.893 154.345C166.535 162.764 165.177 169.282 163.818 173.899C162.188 178.245 160.287 181.911 158.113 184.898L138.96 164.53C141.949 155.024 143.443 144.568 143.443 133.162C143.443 116.052 140.319 101.658 134.07 89.9802C131.887 85.9789 129.46 82.2973 126.79 78.9355C136.146 77.4732 145.315 74.9132 153.094 70.5655C159.035 67.2454 157.206 63.9361 154.143 58.3958C153.806 57.7851 153.453 57.1473 153.094 56.4795C152.747 55.8335 152.407 55.1828 152.07 54.5375C148.893 48.4635 145.97 42.8718 140.007 46.2038C134.443 49.3137 125.917 51.4578 114.97 52.3903C104.252 53.3034 92.3236 52.9706 80.7453 51.9562C69.2096 50.9455 58.3139 49.2847 49.7589 47.6585C45.4846 46.8461 41.8549 46.0536 39.0735 45.3733C37.6815 45.0328 36.5471 44.7314 35.6786 44.4811C35.246 44.3564 34.9066 44.2522 34.6528 44.1698C34.4142 44.0924 34.3015 44.0505 34.2882 44.0456ZM115.325 133.162C115.325 118.768 111.657 107.361 104.322 98.9424C96.7153 90.2518 85.8484 85.9064 71.7215 85.9064C57.8662 85.9064 47.271 90.2518 39.9358 98.9424C32.329 107.361 28.5256 118.768 28.5256 133.162C28.5256 147.827 32.329 159.505 39.9358 168.196C47.271 176.615 57.8662 180.825 71.7215 180.825C85.8484 180.825 96.7153 176.615 104.322 168.196C111.657 159.505 115.325 147.827 115.325 133.162ZM233.095 192.639C246.678 192.639 256.73 186.935 263.25 175.529C270.042 164.122 273.438 149.864 273.438 132.754C273.438 115.916 269.771 102.473 262.435 92.4244C255.1 82.1043 245.32 76.9442 233.095 76.9442C224.401 76.9442 216.794 80.4748 210.274 87.5359C204.026 94.5971 200.358 107.633 199.272 126.644C198.185 141.581 196.827 154.481 195.197 165.344C201.173 176.479 207.558 183.812 214.349 187.343C221.413 190.873 227.661 192.639 233.095 192.639ZM248.643 122.067C257.232 116.401 259.602 104.845 253.936 96.2555C248.27 87.6661 236.714 85.2961 228.125 90.9619C219.536 96.6277 217.165 108.184 222.831 116.773C228.497 125.363 240.053 127.733 248.643 122.067ZM70.2997 163.322C82.5513 160.484 89.9011 147.036 86.716 133.285C83.531 119.534 71.0171 110.687 58.7656 113.525C46.514 116.362 39.1642 129.81 42.3493 143.562C45.5343 157.313 58.0482 166.16 70.2997 163.322Z" fill="url(#paint0_linear_1_2835)"/>
<defs>
<linearGradient id="paint0_linear_1_2835" x1="16.1326" y1="-23.2916" x2="117.818" y2="273.084" gradientUnits="userSpaceOnUse">
<stop stop-color="#0724BC"/>
<stop offset="1" stop-color="#8008C9"/>
</linearGradient>
</defs>
</svg>
