<svg width="362" height="220" viewBox="0 0 362 220" fill="none" xmlns="http://www.w3.org/2000/svg">
<ellipse cx="78.0205" cy="114.569" rx="27.1917" ry="30.5199" transform="rotate(-13.041 78.0205 114.569)" fill="white"/>
<circle cx="285.625" cy="76.4645" r="22.2485" transform="rotate(-33.4101 285.625 76.4645)" fill="white"/>
<path d="M172.251 108.286C172.251 121.907 170.467 134.393 166.899 145.744L189.77 170.067C192.365 166.5 194.636 162.121 196.583 156.933C198.205 151.419 199.827 143.636 201.449 133.582C202.747 123.528 204.207 109.421 205.829 91.2594C208.1 58.8282 215.561 35.64 228.214 21.6946C240.866 7.74915 257.411 0.776463 277.85 0.776462C291.8 0.776461 305.101 4.6682 317.753 12.4517C330.405 19.9108 340.787 31.5861 348.897 47.4773C357.008 63.0443 361.063 83.1516 361.063 107.799C361.063 129.528 358.143 148.825 352.304 165.689C346.788 182.553 338.191 195.688 326.512 205.093C315.158 214.498 300.721 219.2 283.202 219.2C274.119 219.2 264.224 216.768 253.518 211.903C243.137 207.039 233.242 197.958 223.834 184.661C220.914 191.796 217.832 197.958 214.588 203.147C211.019 208.012 207.126 212.552 202.909 216.768L191.717 216.768L150.84 175.418C134.619 194.553 113.207 204.12 86.605 204.12C70.7085 204.12 56.2719 200.39 43.2952 192.931C30.3184 185.472 20.0993 174.607 12.6376 160.338C4.85161 146.068 0.958599 128.717 0.958598 108.286C0.958597 94.3404 2.90511 81.6922 6.79813 70.3413C10.6911 58.9904 25.7766 35.9643 39.4022 26.5592C53.0277 17.1542 68.762 12.4517 86.605 12.4517C102.501 12.4517 116.938 16.3434 129.915 24.1269C142.892 31.5861 153.273 42.4505 161.059 56.7202C168.521 70.6656 172.251 87.8541 172.251 108.286ZM138.674 108.286C138.674 91.0972 134.294 77.4762 125.535 67.4225C116.451 57.0445 103.475 51.8555 86.605 51.8555C70.0597 51.8555 57.4074 57.0445 48.6481 67.4225C39.5644 77.4762 35.0225 91.0972 35.0225 108.286C35.0225 125.799 39.5644 139.744 48.6481 150.122C57.4074 160.176 70.0597 165.202 86.605 165.202C103.475 165.202 116.451 160.176 125.535 150.122C134.294 139.744 138.674 125.799 138.674 108.286ZM279.309 179.31C295.53 179.31 307.534 172.499 315.32 158.878C323.43 145.257 327.486 128.231 327.486 107.799C327.486 87.692 323.106 71.6386 314.347 59.639C305.587 47.3152 293.908 41.1532 279.309 41.1532C268.928 41.1532 259.844 45.3693 252.058 53.8014C244.597 62.2335 240.217 77.8005 238.919 100.502C237.622 118.339 236 133.744 234.053 146.717C241.19 160.013 248.814 168.77 256.925 172.986C265.359 177.202 272.821 179.31 279.309 179.31Z" fill="white"/>
<path fill-rule="evenodd" clip-rule="evenodd" d="M20.919 11.4625C24.1161 2.90237 33.5114 -1.39342 41.904 1.86758C41.9198 1.87346 42.0544 1.92351 42.3393 2.01597C42.6424 2.1143 43.0477 2.23875 43.5643 2.38767C44.6014 2.68662 45.956 3.04653 47.6183 3.45311C50.9397 4.26552 55.2742 5.21181 60.3783 6.18203C70.5943 8.12396 83.6054 10.1072 97.3808 11.3141C111.207 12.5254 125.451 12.9228 138.251 11.8324C151.323 10.7189 161.504 8.15854 168.149 4.44484C176.025 0.0432264 179.461 8.68213 183.776 16.7155C188.092 24.749 191.653 29.1348 183.776 33.5364C171.331 40.4918 155.908 43.6159 140.957 44.8895C125.735 46.1863 109.537 45.6734 94.5974 44.3645C79.6066 43.0511 65.5264 40.9039 54.4198 38.7927C43.8075 36.7754 34.7014 34.5666 30.326 32.8665C21.9335 29.6055 17.7218 20.0226 20.919 11.4625Z" fill="white"/>
</svg>
