<svg width="302" height="184" viewBox="0 0 302 184" fill="none" xmlns="http://www.w3.org/2000/svg">
<path fill-rule="evenodd" clip-rule="evenodd" d="M34.2882 1.04556C27.2602 -1.68524 19.3924 1.91211 16.7151 9.08048C14.0378 16.2488 17.5647 24.2737 24.5927 27.0045C24.8923 27.1209 25.2185 27.2402 25.5696 27.362C16.2831 36.6338 7.52508 50.7038 4.8901 58.3867C1.63003 67.8921 -4.57044e-06 78.4838 -4.05997e-06 90.1619C-3.31208e-06 107.272 3.26006 121.801 9.78019 133.751C16.0287 145.701 24.5863 154.799 35.4532 161.045C46.3201 167.291 58.4095 170.415 71.7215 170.415C93.9986 170.415 111.929 162.403 125.513 146.38L159.743 181.006H169.116C172.648 177.476 175.908 173.674 178.896 169.6C181.613 165.255 184.194 160.094 186.639 154.12C194.517 165.255 202.803 172.859 211.497 176.933C220.462 181.006 228.748 183.043 236.355 183.043C251.025 183.043 263.115 179.105 272.623 171.229C282.403 163.353 289.603 152.354 294.221 138.232C299.111 124.11 301.556 107.951 301.556 89.7545C301.556 69.1142 298.16 52.276 291.369 39.24C284.577 25.9325 275.883 16.1555 265.288 9.90908C254.693 3.39109 243.554 0.13209 231.872 0.13209C214.757 0.132091 200.902 5.97113 190.306 17.6492C179.711 29.3273 173.463 48.7455 171.561 75.9038C170.203 91.1124 168.98 102.926 167.893 111.345C166.535 119.764 165.177 126.282 163.818 130.899C162.188 135.245 160.287 138.911 158.113 141.898L138.96 121.53C141.949 112.024 143.443 101.568 143.443 90.1619C143.443 73.0521 140.319 58.6582 134.07 46.9802C131.887 42.9789 129.46 39.2973 126.79 35.9355C136.146 34.4732 145.315 31.9132 153.094 27.5655C159.035 24.2454 157.206 20.9361 154.143 15.3958C153.806 14.7851 153.453 14.1473 153.094 13.4795C152.747 12.8335 152.407 12.1828 152.07 11.5375C148.893 5.46348 145.97 -0.12822 140.007 3.2038C134.443 6.3137 125.917 8.45777 114.97 9.39029C104.252 10.3034 92.3236 9.97058 80.7453 8.95618C69.2096 7.9455 58.3139 6.28475 49.7589 4.65855C45.4846 3.84607 41.8549 3.05363 39.0735 2.37331C37.6815 2.03283 36.5471 1.73144 35.6786 1.48109C35.246 1.35639 34.9066 1.25217 34.6528 1.16983C34.4142 1.0924 34.3015 1.05049 34.2882 1.04556ZM115.325 90.1619C115.325 75.768 111.657 64.3615 104.322 55.9424C96.7153 47.2518 85.8484 42.9064 71.7215 42.9064C57.8662 42.9064 47.271 47.2518 39.9358 55.9424C32.329 64.3615 28.5256 75.768 28.5256 90.1619C28.5256 104.827 32.329 116.505 39.9358 125.196C47.271 133.615 57.8662 137.825 71.7215 137.825C85.8484 137.825 96.7153 133.615 104.322 125.196C111.657 116.505 115.325 104.827 115.325 90.1619ZM233.095 149.639C246.678 149.639 256.73 143.935 263.25 132.529C270.042 121.122 273.438 106.864 273.438 89.7545C273.438 72.9163 269.771 59.473 262.435 49.4244C255.1 39.1043 245.32 33.9442 233.095 33.9442C224.401 33.9442 216.794 37.4748 210.274 44.5359C204.026 51.5971 200.358 64.6331 199.272 83.6439C198.185 98.5809 196.827 111.481 195.197 122.344C201.173 133.479 207.558 140.812 214.349 144.343C221.413 147.873 227.661 149.639 233.095 149.639ZM248.643 79.0668C257.232 73.4009 259.602 61.8448 253.936 53.2555C248.27 44.6661 236.714 42.2961 228.125 47.9619C219.536 53.6277 217.165 65.1838 222.831 73.7732C228.497 82.3626 240.053 84.7326 248.643 79.0668ZM70.2997 120.322C82.5513 117.484 89.9011 104.036 86.716 90.2852C83.531 76.534 71.0171 67.687 58.7656 70.5247C46.514 73.3624 39.1642 86.8104 42.3493 100.562C45.5343 114.313 58.0482 123.16 70.2997 120.322Z" fill="url(#paint0_linear_1_161)"/>
<defs>
<linearGradient id="paint0_linear_1_161" x1="16.1326" y1="-66.2916" x2="117.818" y2="230.084" gradientUnits="userSpaceOnUse">
<stop stop-color="#0724BC"/>
<stop offset="1" stop-color="#8008C9"/>
</linearGradient>
</defs>
</svg>
